# xmcd
#
# Track frame offsets: 
#        150
#        20423
#        34296
#        50283
#        64194
#        86922
#        97860
#        126924
#        140079
#        156459
#        177599
#        189562
#        218808
#
# Disc length: 3140 seconds
#
# Revision: 0
# Processed by: cddbd v1.5.2PL0 Copyright (c) Steve Scherf et al.
# Submitted via: ExactAudioCopy v1.0b6
#
DISCID=c00c420d
DTITLE=Chicken Shack - 40 Blue Fingers, Freshly Packed And Ready To Se
DTITLE=rve
DYEAR=2013
DGENRE=Blues
TTITLE0=The Letter
TTITLE1=Lonesome Whistle Blues
TTITLE2=When the Train Comes Back
TTITLE3=San-Ho-Zay
TTITLE4=King of the World
TTITLE5=See See Baby
TTITLE6=First Time I Met the Blues
TTITLE7=Webbed Feet
TTITLE8=You Ain't No Good
TTITLE9=What You Did Last Night
TTITLE10=It's Ok With Me Baby
TTITLE11=When My Left Eye Jumps
TTITLE12=Hey Baby
EXTD=
EXTT0=
EXTT1=
EXTT2=
EXTT3=
EXTT4=
EXTT5=
EXTT6=
EXTT7=
EXTT8=
EXTT9=
EXTT10=
EXTT11=
EXTT12=
PLAYORDER=
